# xmcd
#
# Track frame offsets:
#	150
#	14647
#	26217
#	37126
#	53782
#	68202
#	77279
#	89961
#	100731
#	115265
#	124689
#	135187
#	148575
#	164866
#	182505
#	199525
#	217458
#	233206
#	252075
#	266017
#	275817
#	288797
#	302337
#	318107
#
# Disc length: 4428 seconds
#
# Revision: 0
# Processed by: cddbd v1.5.1PL0 Copyright (c) Steve Scherf et al.
# Submitted via: dBpowerAMP V4.0
#
DISCID=64114a18
DTITLE=Forasteros - Exitos
DYEAR=2004
DGENRE=banda
TTITLE0=Rola1
TTITLE1=Rola2
TTITLE2=Rola3
TTITLE3=Rola4
TTITLE4=Rola5
TTITLE5=Rola6
TTITLE6=Rola7
TTITLE7=Rola8
TTITLE8=Rola9
TTITLE9=Rola10
TTITLE10=Rola11
TTITLE11=Rola12
TTITLE12=Rola13
TTITLE13=Rola14
TTITLE14=Rola15
TTITLE15=Rola16
TTITLE16=Rola17
TTITLE17=Rola18
TTITLE18=Rola19
TTITLE19=Rola20
TTITLE20=Rola21
TTITLE21=Rola22
TTITLE22=Rola23
TTITLE23=Rola24
EXTD=
EXTT0=
EXTT1=
EXTT2=
EXTT3=
EXTT4=
EXTT5=
EXTT6=
EXTT7=
EXTT8=
EXTT9=
EXTT10=
EXTT11=
EXTT12=
EXTT13=
EXTT14=
EXTT15=
EXTT16=
EXTT17=
EXTT18=
EXTT19=
EXTT20=
EXTT21=
EXTT22=
EXTT23=
PLAYORDER=
